<svg xmlns="http://www.w3.org/2000/svg" width="1em" height="1em" viewBox="0 0 24 24"><path fill="currentColor" d="M12.923 22q-.394 0-.659-.264t-.264-.66v-3.155l1.248-3.236q.11-.306.382-.496t.59-.189h1.51v1.877l-1.215 1.196l.527.527l1.458-1.444V11.5h1v4.637l1.438 1.463l.527-.527l-1.196-1.221V14h1.473q.318 0 .58.19q.263.189.391.475L22 17.921v3.156q0 .394-.274.659q-.274.264-.65.264h-2.23q-.394 0-.658-.264t-.265-.66v-3.095L17 17.058l-.923.923V21q0 .413-.293.707q-.294.293-.707.293zM7 14.89l-1.567-3.11q-.068-.134-.18-.207T5 11.5H3V6.615q0-.69.463-1.152Q3.925 5 4.615 5h14.77q.69 0 1.152.463q.463.462.463 1.152v5.5h-1.615v-2.5h-4.77v2.5l-.97.064l-2.207-4.398q-.067-.116-.182-.173Q11.14 7.55 11 7.55t-.265.058q-.125.057-.193.173zM4.615 19q-.69 0-1.152-.462Q3 18.075 3 17.385V12.5h1.683l1.86 3.738q.067.14.18.201T7 16.5q.14 0 .253-.06t.18-.202l3.548-7.103l1.73 3.41q-.407.242-.723.607q-.317.365-.511.835l-1.362 3.582V19z"/></svg>